<svg id="SvgjsSvg1008" xmlns="http://www.w3.org/2000/svg" version="1.1" xmlns:xlink="http://www.w3.org/1999/xlink" xmlns:svgjs="http://svgjs.com/svgjs" width="50" height="50"><defs id="SvgjsDefs1009"></defs><path id="SvgjsPath1010" d="M78 26C78 12.19288 89.19288 1 103 1C116.80712 1 128 12.19288 128 26C128 39.80712 116.80712 51 103 51C89.19288 51 78 39.80712 78 26Z " fill="#ffffff" fill-opacity="1" transform="matrix(1,0,0,1,-78,-1)"></path><path id="SvgjsPath1011" d="M103.24 51C97.5 51 92.22 49.07 88 45.82C88.6 45.59 89.22 45.35 89.87 45.11C96.29 42.769999999999996 98.35000000000001 40.79 98.35000000000001 36.55C98.35000000000001 34.01 96.39000000000001 34.839999999999996 95.52000000000001 30.179999999999996C95.17000000000002 28.249999999999996 93.43 30.149999999999995 93.10000000000001 25.739999999999995C93.10000000000001 23.979999999999993 94.05000000000001 23.539999999999996 94.05000000000001 23.539999999999996C94.05000000000001 23.539999999999996 93.57000000000001 20.939999999999994 93.38000000000001 18.939999999999998C93.15 16.449999999999996 94.82000000000001 9.999999999999998 103.74000000000001 9.999999999999998C112.65 9.999999999999998 114.33000000000001 16.45 114.09 18.939999999999998C113.9 20.939999999999998 113.42 23.54 113.42 23.54C113.42 23.54 114.37 23.98 114.37 25.74C114.04 30.15 112.30000000000001 28.25 111.95 30.18C111.09 34.84 109.12 34.01 109.12 36.55C109.12 40.79 111.18 42.769999999999996 117.60000000000001 45.11C118.01 45.26 118.41000000000001 45.41 118.80000000000001 45.56C114.53000000000002 48.97 109.12 51 103.24000000000001 51Z " fill="#d8d8d8" fill-opacity="1" transform="matrix(1,0,0,1,-78,-1)"></path></svg>